<svg xmlns="http://www.w3.org/2000/svg" aria-hidden="true" style="position:absolute;width:0;height:0;overflow:hidden"><defs><symbol id="heart" viewBox="0 0 32 32"><path stroke-linecap="round" stroke-linejoin="round" stroke-width="2.909" d="M15.991 6.848C13.325 3.731 8.88 2.893 5.54 5.747s-3.81 7.625-1.187 11c2.181 2.806 8.781 8.725 10.944 10.641.242.214.363.321.504.364a.668.668 0 0 0 .381 0c.141-.042.262-.149.504-.364 2.163-1.916 8.763-7.834 10.944-10.641 2.623-3.375 2.21-8.177-1.187-11.001s-7.785-2.015-10.451 1.101z"/></symbol><symbol id="burger" viewBox="0 0 33 32"><path stroke-linecap="round" stroke-linejoin="round" stroke-width="1.939" d="M28.121 12.929H4.848M28.121 7.758H4.848M28.121 18.101H4.848M28.121 23.273H4.848"/></symbol><symbol id="close" viewBox="0 0 32 32"><path stroke-linecap="round" stroke-linejoin="round" stroke-width="2.667" d="M24 8 8 24M8 8l16 16"/></symbol><symbol id="switch" viewBox="0 0 50 32"><path fill="#cecdcd" d="M13.176 6.902H29.49a6.274 6.274 0 0 1 0 12.549H13.176a6.274 6.274 0 0 1 0-12.548z" style="fill:var(--color2, #cecdcd)"/><path fill="#f8f8f8" d="M19.074 13.177a5.898 5.898 0 1 1-11.797-.001 5.898 5.898 0 0 1 11.797.001z" style="fill:var(--color1, #f8f8f8)"/></symbol><symbol id="toque" viewBox="0 0 38 32"><path fill="#9bb537" d="M7.172 12.69h23.172v17.655H7.172V12.69z" style="fill:var(--color3, #9bb537)"/><path fill="#9bb537" d="M16.552 11.586c0 4.571-3.705 8.276-8.276 8.276S0 16.157 0 11.586 3.705 3.31 8.276 3.31s8.276 3.705 8.276 8.276z" style="fill:var(--color3, #9bb537)"/><path fill="#9bb537" d="M27.034 8.276c0 4.571-3.705 8.276-8.276 8.276s-8.276-3.705-8.276-8.276S14.187 0 18.758 0s8.276 3.705 8.276 8.276z" style="fill:var(--color3, #9bb537)"/><path fill="#9bb537" d="M37.517 11.586c0 4.571-3.705 8.276-8.276 8.276s-8.276-3.705-8.276-8.276S24.67 3.31 29.241 3.31s8.276 3.705 8.276 8.276z" style="fill:var(--color3, #9bb537)"/><path fill="#f8f8f8" d="M7.172 29.241h23.172v2.081c0 .374-.324.678-.724.678H7.896c-.4 0-.724-.303-.724-.678v-2.081zM14.345 10.463c0-.598.371-1.084.828-1.084s.828.485.828 1.084v5.005c0 .598-.371 1.084-.828 1.084s-.828-.485-.828-1.084v-5.005zM17.103 10.463c0-.598.618-1.084 1.379-1.084s1.379.485 1.379 1.084v5.005c0 .598-.618 1.084-1.379 1.084s-1.379-.485-1.379-1.084v-5.005zM20.966 10.463c0-.598.494-1.084 1.103-1.084s1.103.485 1.103 1.084v5.005c0 .598-.494 1.084-1.103 1.084s-1.103-.485-1.103-1.084v-5.005z" style="fill:var(--color1, #f8f8f8)"/><path fill="#050505" d="M28.184 3.131c.288-.03.581-.045.878-.045A8.333 8.333 0 0 1 37 8.832c-.288.03-.581.045-.878.045a8.333 8.333 0 0 1-7.938-5.746z" style="fill:var(--color4, #050505)"/></symbol><symbol id="basket" viewBox="0 0 33 32"><path stroke-linecap="round" stroke-linejoin="round" stroke-width="2.064" d="M13.419 22.71a1.032 1.032 0 1 0 0-2.064 1.032 1.032 0 0 0 0 2.064zM24.774 22.71a1.032 1.032 0 1 0 0-2.064 1.032 1.032 0 0 0 0 2.064z"/><path stroke-linecap="round" stroke-linejoin="round" stroke-width="1.858" d="M5.161 1.032H9.29l2.766 13.822a2.065 2.065 0 0 0 2.064 1.662h10.034a2.065 2.065 0 0 0 2.064-1.662l1.652-8.661H10.322"/></symbol><symbol id="search" viewBox="0 0 32 32"><path d="M28.947 27.054 24 22.147a11.999 11.999 0 0 0-1.353-16.445 12 12 0 1 0-.5 18.298l4.907 4.907a1.334 1.334 0 0 0 1.894 0 1.336 1.336 0 0 0 0-1.854zm-14.28-3.053a9.33 9.33 0 0 1-8.623-5.762A9.339 9.339 0 0 1 8.067 8.067a9.331 9.331 0 0 1 14.36 1.415 9.33 9.33 0 0 1-1.161 11.785 9.332 9.332 0 0 1-6.6 2.734z"/></symbol><symbol id="star" viewBox="0 0 34 32"><path d="M14.89 2.282c.737-2.268 3.945-2.268 4.682 0l2.08 6.402a2.463 2.463 0 0 0 2.341 1.701h6.731c2.384 0 3.376 3.051 1.447 4.453l-5.446 3.957a2.46 2.46 0 0 0-.894 2.752l2.08 6.402c.737 2.268-1.859 4.154-3.788 2.752l-5.446-3.957a2.461 2.461 0 0 0-2.894 0l-5.446 3.957c-1.929 1.402-4.525-.484-3.788-2.752l2.08-6.402a2.46 2.46 0 0 0-.894-2.752l-5.446-3.957c-1.929-1.402-.938-4.453 1.447-4.453h6.731a2.462 2.462 0 0 0 2.341-1.701l2.08-6.402z"/></symbol><symbol xmlns="http://www.w3.org/2000/svg" id="icon-x-close" viewBox="0 0 32 32"><path stroke-linecap="round" stroke-linejoin="round" stroke-width="2.286" d="M24 8 8 24M8 8l16 16"/></symbol><symbol id="arrow-double-left" viewBox="0 0 32 32"><path fill="#050505" d="M32 16c0 8.837-7.163 16-16 16S0 24.837 0 16 7.163 0 16 0s16 7.163 16 16z" style="fill:var(--color1, #050505)"/><path fill="#f8f8f8" d="M12.073 16.516a.732.732 0 0 1 0-1.034l3.338-3.331a.732.732 0 0 0 0-1.034.725.725 0 0 0-1.026 0l-3.338 3.338a2.18 2.18 0 0 0 0 3.084l3.338 3.338a.728.728 0 0 0 1.025-1.034l-3.338-3.331z" opacity=".5" style="fill:var(--color2, #f8f8f8)"/><path fill="#f8f8f8" d="M17.164 16.516a.732.732 0 0 1 0-1.034l3.338-3.331a.732.732 0 0 0 0-1.034.725.725 0 0 0-1.026 0l-3.338 3.338a2.18 2.18 0 0 0 0 3.084l3.338 3.338a.728.728 0 0 0 1.025-1.034l-3.338-3.331z" opacity=".5" style="fill:var(--color2, #f8f8f8)"/></symbol><symbol id="arrow-left" viewBox="0 0 32 32"><path fill="#050505" d="M32 16c0 8.837-7.163 16-16 16S0 24.837 0 16 7.163 0 16 0s16 7.163 16 16z" style="fill:var(--color1, #050505)"/><path fill="#f8f8f8" d="M14.982 16.516a.732.732 0 0 1 0-1.034l3.338-3.331a.732.732 0 0 0 0-1.034.73.73 0 0 0-1.026 0l-3.338 3.338a2.18 2.18 0 0 0 0 3.084l3.338 3.338a.728.728 0 0 0 1.025-1.034l-3.338-3.331z" opacity=".5" style="fill:var(--color2, #f8f8f8)"/></symbol><symbol id="arrow-rigth" viewBox="0 0 32 32"><path fill="#9bb537" d="M32 16c0 8.837-7.163 16-16 16S0 24.837 0 16 7.163 0 16 0s16 7.163 16 16z" style="fill:var(--color3, #9bb537)"/><path fill="#050505" d="M17.018 16.516a.732.732 0 0 0 0-1.034l-3.338-3.331a.732.732 0 0 1 0-1.034.725.725 0 0 1 1.026 0l3.338 3.338a2.18 2.18 0 0 1 0 3.084l-3.338 3.338a.728.728 0 0 1-1.025-1.034l3.338-3.331z" style="fill:var(--color1, #050505)"/></symbol><symbol id="arrow-double-right" viewBox="0 0 32 32"><path fill="#9bb537" d="M32 16c0 8.837-7.163 16-16 16S0 24.837 0 16 7.163 0 16 0s16 7.163 16 16z" style="fill:var(--color3, #9bb537)"/><path fill="#050505" d="M19.927 16.516a.732.732 0 0 0 0-1.034l-3.338-3.331a.732.732 0 0 1 0-1.034.725.725 0 0 1 1.026 0l3.338 3.338a2.18 2.18 0 0 1 0 3.084l-3.338 3.338a.728.728 0 0 1-1.025-1.034l3.338-3.331z" style="fill:var(--color1, #050505)"/><path fill="#050505" d="M14.836 16.516a.732.732 0 0 0 0-1.034l-3.338-3.331a.732.732 0 0 1 0-1.034.725.725 0 0 1 1.026 0l3.338 3.338a2.18 2.18 0 0 1 0 3.084l-3.338 3.338a.728.728 0 0 1-1.025-1.034l3.338-3.331z" style="fill:var(--color1, #050505)"/></symbol></defs></svg>