<svg xmlns="http://www.w3.org/2000/svg" aria-hidden="true" style="position:absolute;width:0;height:0;overflow:hidden">
  <defs>
    <!-- MOBILE MENU -->
    <symbol id="burger" viewBox="0 0 33 32">
<path stroke-linejoin="round" stroke-linecap="round" stroke-miterlimit="4" stroke-width="1.9394" d="M28.121 12.929h-23.273"></path>
<path stroke-linejoin="round" stroke-linecap="round" stroke-miterlimit="4" stroke-width="1.9394" d="M28.121 7.758h-23.273"></path>
<path stroke-linejoin="round" stroke-linecap="round" stroke-miterlimit="4" stroke-width="1.9394" d="M28.121 18.101h-23.273"></path>
<path stroke-linejoin="round" stroke-linecap="round" stroke-miterlimit="4" stroke-width="1.9394" d="M28.121 23.273h-23.273"></path>
</symbol>
    <!-- ARROW DOWN -->
    <symbol id="arrow-down" viewBox="0 0 24 24">
      <path stroke-linecap="round" stroke-linejoin="round" stroke-width="2.667" d="m6 9 6 6 6-6"/>
    </symbol>
    <!-- SEARCH -->
    <symbol id="search" viewBox="0 0 24 24" >
      <path  d="M21.71 20.29 18 16.61a9.005 9.005 0 0 0-1.014-12.334A9 9 0 1 0 16.61 18l3.68 3.68a1.007 1.007 0 0 0 .71.296.998.998 0 0 0 .71-.296 1.003 1.003 0 0 0 0-1.39zM11 18a7.002 7.002 0 0 1-6.865-8.365 7.003 7.003 0 0 1 9.544-5.102A7 7 0 0 1 11 18z"/>
    </symbol>
    <!-- SEARCH-ARROW -->
    <symbol id="search-arrow" viewBox="0 0 24 24" >
      <path  d="M5.293 9.707l6 6c0.391 0.391 1.024 0.391 1.414 0l6-6c0.391-0.391 0.391-1.024 0-1.414s-1.024-0.391-1.414 0l-5.293 5.293-5.293-5.293c-0.391-0.391-1.024-0.391-1.414 0s-0.391 1.024 0 1.414z"></path>
    </symbol>
    <!-- SHOPPING ICON -->
    <symbol id="basket" viewBox="0 0 33 32">
<path stroke-linejoin="round" stroke-linecap="round" stroke-miterlimit="4" stroke-width="2.0645" d="M13.419 22.71c0.57 0 1.032-0.462 1.032-1.032s-0.462-1.032-1.032-1.032c-0.57 0-1.032 0.462-1.032 1.032s0.462 1.032 1.032 1.032z"></path>
<path stroke-linejoin="round" stroke-linecap="round" stroke-miterlimit="4" stroke-width="2.0645" d="M24.774 22.71c0.57 0 1.032-0.462 1.032-1.032s-0.462-1.032-1.032-1.032c-0.57 0-1.032 0.462-1.032 1.032s0.462 1.032 1.032 1.032z"></path>
<path stroke-linejoin="round" stroke-linecap="round" stroke-miterlimit="4" stroke-width="1.8581" d="M5.161 1.032h4.129l2.766 13.822c0.094 0.475 0.353 0.902 0.73 1.206s0.85 0.465 1.334 0.456h10.034c0.484 0.009 0.957-0.152 1.334-0.456s0.636-0.731 0.73-1.206l1.652-8.661h-17.548"></path>
</symbol>
    <!-- STAR ICON -->
    <symbol id="star" viewBox="0 0 24 24">
      <path d="M10.37 2.446c.513-1.579 2.748-1.579 3.261 0l1.449 4.459a1.715 1.715 0 0 0 1.63 1.185h4.688c1.661 0 2.351 2.125 1.008 3.101l-3.793 2.756a1.715 1.715 0 0 0-.623 1.917l1.449 4.459c.513 1.579-1.294 2.893-2.638 1.917l-3.793-2.756a1.716 1.716 0 0 0-2.015 0L7.2 22.24c-1.344.976-3.151-.337-2.638-1.917l1.449-4.459a1.716 1.716 0 0 0-.623-1.917l-3.793-2.755C.251 10.216.942 8.091 2.603 8.091h4.688c.743 0 1.401-.478 1.63-1.185l1.449-4.459z"  />
    </symbol>
        <!-- HEART ICON -->
    <symbol id="heart" viewBox="0 0 32 32">
      <path  opacity="1" stroke-linejoin="round" stroke-linecap="round" stroke-miterlimit="4" stroke-width="2.9091" d="M27.787 6.147c-0.681-0.681-1.49-1.222-2.38-1.591s-1.844-0.559-2.807-0.559-1.917 0.19-2.807 0.559c-0.89 0.369-1.699 0.909-2.38 1.591l-1.413 1.413-1.413-1.413c-1.376-1.376-3.241-2.148-5.187-2.148s-3.811 0.773-5.187 2.148c-1.376 1.376-2.148 3.241-2.148 5.187s0.773 3.811 2.148 5.187l11.787 11.787 11.787-11.787c0.681-0.681 1.222-1.49 1.591-2.38s0.559-1.844 0.559-2.807c0-0.963-0.19-1.917-0.559-2.807s-0.909-1.699-1.591-2.38v0z"></path>
    </symbol>
    <!-- CLOSE ICON FOR MOBILE-->
    <symbol id="icon-x-close" viewBox="0 0 24 24" >
      <path stroke-linecap="round" stroke-linejoin="round" stroke-width="2" d="M18 6 6 18M6 6l12 12"/>
    </symbol>
    <!-- CLOSE ICON -->
    <symbol id="close" viewBox="0 0 24 24" fill="none">
      <path stroke-linecap="round" stroke-linejoin="round" stroke-width="2" d="M18 6 6 18M6 6l12 12"/>
    </symbol>
    <!-- DOUBLE ARROW RIGHT -->
    <symbol id="arrow-double-right" viewBox="0 0 24 24">
      <path d="m13.707 17.707 5-5a.999.999 0 0 0 0-1.414l-5-5a.999.999 0 1 0-1.414 1.414L16.586 12l-4.293 4.293a.999.999 0 1 0 1.414 1.414zm-7 0 5-5a.999.999 0 0 0 0-1.414l-5-5a.999.999 0 1 0-1.414 1.414L9.586 12l-4.293 4.293a.999.999 0 1 0 1.414 1.414z"/>
    </symbol>
    <!-- SINGLE ARROW RIGHT -->
    <symbol id="arrow-rigth" viewBox="0 0 24 24">
      <path d="m9.707 18.707 6-6a.999.999 0 0 0 0-1.414l-6-6a.999.999 0 1 0-1.414 1.414L13.586 12l-5.293 5.293a.999.999 0 1 0 1.414 1.414z"/>
    </symbol>
     <!-- DOUBLE ARROW LEFT -->
    <symbol id="arrow-double-left" viewBox="0 0 24 24">
      <path d="M11.707 16.293 7.414 12l4.293-4.293a.999.999 0 1 0-1.414-1.414l-5 5a.999.999 0 0 0 0 1.414l5 5a.999.999 0 1 0 1.414-1.414zm7 0L14.414 12l4.293-4.293a.999.999 0 1 0-1.414-1.414l-5 5a.999.999 0 0 0 0 1.414l5 5a.999.999 0 1 0 1.414-1.414z"/>
    </symbol>
     <!-- SINGLE ARROW LEFT -->
    <symbol id="arrow-left" viewBox="0 0 24 24">
      <path d="M15.707 17.293 10.414 12l5.293-5.293a.999.999 0 1 0-1.414-1.414l-6 6a.999.999 0 0 0 0 1.414l6 6a.999.999 0 1 0 1.414-1.414z"/>
    </symbol>
    <!-- COOK LOGO -->
    <symbol id="icon-Logo" viewBox="0 0 32 32">
    <symbol id="icon-elements" viewBox="0 0 37 32">
        <path fill="#9bb537" style="fill: var(--color1, #9bb537)" d="M7.325 12.723h23.133v17.735h-23.133v-17.735z"></path>
        <path fill="#9bb537" style="fill: var(--color1, #9bb537)" d="M16.578 11.373c0 4.578-3.711 8.289-8.289 8.289s-8.289-3.711-8.289-8.289c0-4.578 3.711-8.289 8.289-8.289s8.289 3.711 8.289 8.289z"></path>
        <path fill="#9bb537" style="fill: var(--color1, #9bb537)" d="M26.988 8.289c0 4.578-3.711 8.289-8.289 8.289s-8.289-3.711-8.289-8.289c0-4.578 3.711-8.289 8.289-8.289s8.289 3.711 8.289 8.289z"></path>
        <path fill="#9bb537" style="fill: var(--color1, #9bb537)" d="M37.398 11.373c0 4.578-3.711 8.289-8.289 8.289s-8.289-3.711-8.289-8.289c0-4.578 3.711-8.289 8.289-8.289s8.289 3.711 8.289 8.289z"></path>
        <path fill="#f8f8f8" style="fill: var(--color2, #f8f8f8)" d="M7.325 29.301h23.133v2.036c0 0.366-0.324 0.663-0.723 0.663h-21.687c-0.399 0-0.723-0.297-0.723-0.663v-2.036z"></path>
        <path fill="#f8f8f8" style="fill: var(--color2, #f8f8f8)" d="M14.265 10.36c0-0.611 0.432-1.107 0.964-1.107v0c0.532 0 0.964 0.495 0.964 1.107v5.112c0 0.611-0.432 1.107-0.964 1.107v0c-0.532 0-0.964-0.495-0.964-1.107v-5.112z"></path>
        <path fill="#f8f8f8" style="fill: var(--color2, #f8f8f8)" d="M17.349 10.36c0-0.611 0.604-1.107 1.349-1.107v0c0.745 0 1.349 0.495 1.349 1.107v5.112c0 0.611-0.604 1.107-1.349 1.107v0c-0.745 0-1.349-0.495-1.349-1.107v-5.112z"></path>
        <path fill="#f8f8f8" style="fill: var(--color2, #f8f8f8)" d="M21.205 10.36c0-0.611 0.432-1.107 0.964-1.107v0c0.532 0 0.964 0.495 0.964 1.107v5.112c0 0.611-0.432 1.107-0.964 1.107v0c-0.532 0-0.964-0.495-0.964-1.107v-5.112z"></path>
        <path fill="#050505" style="fill: var(--color3, #050505)" d="M28.184 3.131c0.289-0.030 0.581-0.045 0.878-0.045 3.714 0 6.861 2.413 7.938 5.746-0.289 0.030-0.581 0.045-0.878 0.045-3.714 0-6.861-2.413-7.938-5.746z"></path>
    </symbol>
    <!-- Scroll TO TOP -->
    <symbol id="scroll-to-top_icon" viewBox="0 0 33 32">
      <path d="M28.889 17.666c0.432 0.411 0.992 0.613 1.552 0.605s1.114-0.223 1.536-0.647l0.032-0.032c0.398-0.419 0.592-0.955 0.584-1.488s-0.218-1.064-0.629-1.472c-4.682-4.684-9.443-9.318-14.162-13.973-0.013-0.019-0.027-0.034-0.042-0.050-0.432-0.414-0.997-0.615-1.557-0.607s-1.117 0.225-1.538 0.65l-0.069 0.072c-4.655 4.639-9.324 9.265-13.968 13.912-0.408 0.409-0.618 0.936-0.626 1.47s0.186 1.069 0.586 1.488l0.040 0.040c0.419 0.416 0.971 0.631 1.528 0.639s1.119-0.194 1.552-0.605l12.538-12.525 12.645 12.525zM28.358 31.398c0.43 0.409 0.989 0.607 1.546 0.599 0.56-0.008 1.114-0.223 1.536-0.647l0.032-0.032c0.398-0.416 0.592-0.955 0.586-1.488-0.008-0.533-0.218-1.066-0.629-1.472-4.586-4.584-9.096-9.324-13.626-13.971-0.013-0.019-0.029-0.037-0.045-0.056-0.432-0.411-0.997-0.613-1.557-0.605s-1.117 0.225-1.538 0.65c-4.496 4.642-8.976 9.302-13.467 13.952l-0.034 0.032c-0.408 0.406-0.615 0.936-0.623 1.47s0.186 1.069 0.586 1.488l0.040 0.040c0.419 0.416 0.971 0.631 1.528 0.639s1.119-0.194 1.552-0.605l12-12.515 12.114 12.52z"></path>
    </symbol>
  </defs>
</svg>