<svg aria-hidden="true" style="position: absolute; width: 0; height: 0; overflow: hidden;" version="1.1" xmlns="http://www.w3.org/2000/svg" xmlns:xlink="http://www.w3.org/1999/xlink">
<defs>

<symbol id="heart" viewBox="0 0 32 32">
<path stroke-linejoin="round" stroke-linecap="round" stroke-miterlimit="4" stroke-width="2.9091" d="M15.991 6.848c-2.666-3.117-7.111-3.955-10.451-1.101s-3.81 7.625-1.187 11c2.181 2.806 8.781 8.725 10.944 10.641 0.242 0.214 0.363 0.321 0.504 0.364 0.123 0.037 0.258 0.037 0.381 0 0.141-0.042 0.262-0.149 0.504-0.364 2.163-1.916 8.763-7.834 10.944-10.641 2.623-3.375 2.21-8.177-1.187-11.001s-7.785-2.015-10.451 1.101z"></path>
</symbol>

<symbol id="burger" viewBox="0 0 33 32">
<path stroke-linejoin="round" stroke-linecap="round" stroke-miterlimit="4" stroke-width="1.9394" d="M28.121 12.929h-23.273"></path>
<path stroke-linejoin="round" stroke-linecap="round" stroke-miterlimit="4" stroke-width="1.9394" d="M28.121 7.758h-23.273"></path>
<path stroke-linejoin="round" stroke-linecap="round" stroke-miterlimit="4" stroke-width="1.9394" d="M28.121 18.101h-23.273"></path>
<path stroke-linejoin="round" stroke-linecap="round" stroke-miterlimit="4" stroke-width="1.9394" d="M28.121 23.273h-23.273"></path>
</symbol>

<symbol id="close" viewBox="0 0 32 32">
<path stroke-linejoin="round" stroke-linecap="round" stroke-miterlimit="4" stroke-width="2.6667" d="M24 8l-16 16"></path>
<path stroke-linejoin="round" stroke-linecap="round" stroke-miterlimit="4" stroke-width="2.6667" d="M8 8l16 16"></path>
</symbol>

<symbol id="switch" viewBox="0 0 50 32">
<path fill="#cecdcd" style="fill: var(--color2, #cecdcd)" d="M13.176 6.902h16.314c3.465 0 6.274 2.809 6.274 6.274s-2.809 6.275-6.274 6.275h-16.314c-3.465 0-6.274-2.809-6.274-6.274s2.809-6.274 6.274-6.274z"></path>
<path fill="#f8f8f8" style="fill: var(--color1, #f8f8f8)" d="M19.074 13.177c0 3.257-2.641 5.898-5.898 5.898s-5.898-2.641-5.898-5.898c0-3.257 2.641-5.898 5.898-5.898s5.898 2.641 5.898 5.898z"></path>
</symbol>

<symbol id="toque" viewBox="0 0 38 32">
<path fill="#9bb537" style="fill: var(--color3, #9bb537)" d="M7.172 12.69h23.172v17.655h-23.172v-17.655z"></path>
<path fill="#9bb537" style="fill: var(--color3, #9bb537)" d="M16.552 11.586c0 4.571-3.705 8.276-8.276 8.276s-8.276-3.705-8.276-8.276c0-4.571 3.705-8.276 8.276-8.276s8.276 3.705 8.276 8.276z"></path>
<path fill="#9bb537" style="fill: var(--color3, #9bb537)" d="M27.034 8.276c0 4.571-3.705 8.276-8.276 8.276s-8.276-3.705-8.276-8.276c0-4.571 3.705-8.276 8.276-8.276s8.276 3.705 8.276 8.276z"></path>
<path fill="#9bb537" style="fill: var(--color3, #9bb537)" d="M37.517 11.586c0 4.571-3.705 8.276-8.276 8.276s-8.276-3.705-8.276-8.276c0-4.571 3.705-8.276 8.276-8.276s8.276 3.705 8.276 8.276z"></path>
<path fill="#f8f8f8" style="fill: var(--color1, #f8f8f8)" d="M7.172 29.241h23.172v2.081c0 0.374-0.324 0.678-0.724 0.678h-21.724c-0.4 0-0.724-0.303-0.724-0.678v-2.081z"></path>
<path fill="#f8f8f8" style="fill: var(--color1, #f8f8f8)" d="M14.345 10.463c0-0.598 0.371-1.084 0.828-1.084s0.828 0.485 0.828 1.084v5.005c0 0.598-0.371 1.084-0.828 1.084s-0.828-0.485-0.828-1.084v-5.005z"></path>
<path fill="#f8f8f8" style="fill: var(--color1, #f8f8f8)" d="M17.103 10.463c0-0.598 0.618-1.084 1.379-1.084s1.379 0.485 1.379 1.084v5.005c0 0.598-0.618 1.084-1.379 1.084s-1.379-0.485-1.379-1.084v-5.005z"></path>
<path fill="#f8f8f8" style="fill: var(--color1, #f8f8f8)" d="M20.966 10.463c0-0.598 0.494-1.084 1.103-1.084s1.103 0.485 1.103 1.084v5.005c0 0.598-0.494 1.084-1.103 1.084s-1.103-0.485-1.103-1.084v-5.005z"></path>
<path fill="#050505" style="fill: var(--color4, #050505)" d="M28.184 3.131c0.288-0.030 0.581-0.045 0.878-0.045 3.714 0 6.861 2.413 7.938 5.746-0.288 0.030-0.581 0.045-0.878 0.045-3.714 0-6.861-2.413-7.938-5.746z"></path>
</symbol>

<symbol id="basket" viewBox="0 0 33 32">
<path stroke-linejoin="round" stroke-linecap="round" stroke-miterlimit="4" stroke-width="2.0645" d="M13.419 22.71c0.57 0 1.032-0.462 1.032-1.032s-0.462-1.032-1.032-1.032c-0.57 0-1.032 0.462-1.032 1.032s0.462 1.032 1.032 1.032z"></path>
<path stroke-linejoin="round" stroke-linecap="round" stroke-miterlimit="4" stroke-width="2.0645" d="M24.774 22.71c0.57 0 1.032-0.462 1.032-1.032s-0.462-1.032-1.032-1.032c-0.57 0-1.032 0.462-1.032 1.032s0.462 1.032 1.032 1.032z"></path>
<path stroke-linejoin="round" stroke-linecap="round" stroke-miterlimit="4" stroke-width="1.8581" d="M5.161 1.032h4.129l2.766 13.822c0.094 0.475 0.353 0.902 0.73 1.206s0.85 0.465 1.334 0.456h10.034c0.484 0.009 0.957-0.152 1.334-0.456s0.636-0.731 0.73-1.206l1.652-8.661h-17.548"></path>
</symbol>

<symbol id="search" viewBox="0 0 32 32">
<path d="M28.947 27.054l-4.947-4.907c1.92-2.394 2.85-5.433 2.598-8.492s-1.666-5.905-3.951-7.953-5.269-3.143-8.337-3.059c-3.068 0.084-5.987 1.34-8.157 3.51s-3.426 5.089-3.51 8.157c-0.084 3.068 1.011 6.051 3.059 8.337s4.894 3.7 7.953 3.951c3.059 0.252 6.098-0.678 8.492-2.598l4.907 4.907c0.124 0.125 0.271 0.224 0.434 0.292s0.337 0.102 0.513 0.102c0.176 0 0.35-0.035 0.513-0.102s0.31-0.167 0.434-0.292c0.24-0.249 0.375-0.581 0.375-0.927s-0.134-0.678-0.375-0.927zM14.667 24.001c-1.846 0-3.65-0.547-5.185-1.573s-2.731-2.483-3.438-4.189c-0.706-1.705-0.891-3.582-0.531-5.393s1.249-3.474 2.554-4.779c1.305-1.305 2.968-2.194 4.779-2.554s3.687-0.175 5.392 0.531c1.706 0.706 3.163 1.903 4.189 3.438s1.573 3.339 1.573 5.185c0 2.475-0.983 4.849-2.734 6.6s-4.124 2.734-6.6 2.734z"></path>
</symbol>

<symbol id="star" viewBox="0 0 34 32">
<path d="M14.89 2.282c0.737-2.268 3.945-2.268 4.682 0l2.080 6.402c0.33 1.014 1.275 1.701 2.341 1.701h6.731c2.384 0 3.376 3.051 1.447 4.453l-5.446 3.957c-0.863 0.627-1.224 1.738-0.894 2.752l2.080 6.402c0.737 2.268-1.859 4.154-3.788 2.752l-5.446-3.957c-0.863-0.627-2.031-0.627-2.894 0l-5.446 3.957c-1.929 1.402-4.525-0.484-3.788-2.752l2.080-6.402c0.33-1.014-0.031-2.125-0.894-2.752l-5.446-3.957c-1.929-1.402-0.938-4.453 1.447-4.453h6.731c1.066 0 2.012-0.687 2.341-1.701l2.080-6.402z"></path>
</symbol>


<symbol xmlns="http://www.w3.org/2000/svg" id="icon-x-close" viewBox="0 0 32 32"><path stroke-linecap="round" stroke-linejoin="round" stroke-width="2.286" d="M24 8 8 24M8 8l16 16"/></symbol>


<symbol id="arrow-double-left" viewBox="0 0 32 32">
<path fill="#050505" style="fill: var(--color1, #050505)" d="M32 16c0 8.837-7.163 16-16 16s-16-7.163-16-16c0-8.837 7.163-16 16-16s16 7.163 16 16z"></path>
<path fill="#f8f8f8" style="fill: var(--color2, #f8f8f8)" opacity="0.5" d="M12.073 16.516c-0.068-0.068-0.122-0.148-0.159-0.237s-0.056-0.184-0.056-0.28 0.019-0.191 0.056-0.28c0.037-0.089 0.091-0.169 0.159-0.237l3.338-3.331c0.068-0.068 0.122-0.148 0.159-0.237s0.056-0.184 0.056-0.28c0-0.096-0.019-0.191-0.056-0.28s-0.091-0.169-0.159-0.237c-0.136-0.136-0.321-0.211-0.513-0.211s-0.377 0.076-0.513 0.211l-3.338 3.338c-0.409 0.409-0.638 0.964-0.638 1.542s0.23 1.133 0.638 1.542l3.338 3.338c0.135 0.134 0.318 0.21 0.509 0.211 0.096 0 0.191-0.018 0.279-0.054s0.169-0.090 0.237-0.157c0.068-0.068 0.122-0.148 0.159-0.237s0.056-0.184 0.056-0.28-0.019-0.191-0.056-0.28c-0.037-0.089-0.091-0.169-0.159-0.237l-3.338-3.331z"></path>
<path fill="#f8f8f8" style="fill: var(--color2, #f8f8f8)" opacity="0.5" d="M17.164 16.516c-0.068-0.068-0.122-0.148-0.159-0.237s-0.056-0.184-0.056-0.28 0.019-0.191 0.056-0.28c0.037-0.089 0.091-0.169 0.159-0.237l3.338-3.331c0.068-0.068 0.122-0.148 0.159-0.237s0.056-0.184 0.056-0.28c0-0.096-0.019-0.191-0.056-0.28s-0.091-0.169-0.159-0.237c-0.136-0.136-0.321-0.211-0.513-0.211s-0.377 0.076-0.513 0.211l-3.338 3.338c-0.409 0.409-0.638 0.964-0.638 1.542s0.23 1.133 0.638 1.542l3.338 3.338c0.135 0.134 0.318 0.21 0.509 0.211 0.096 0 0.191-0.018 0.279-0.054s0.169-0.090 0.237-0.157c0.068-0.068 0.122-0.148 0.159-0.237s0.056-0.184 0.056-0.28-0.019-0.191-0.056-0.28c-0.037-0.089-0.091-0.169-0.159-0.237l-3.338-3.331z"></path>
</symbol>

<symbol id="arrow-left" viewBox="0 0 32 32">
<path fill="#050505" style="fill: var(--color1, #050505)" d="M32 16c0 8.837-7.163 16-16 16s-16-7.163-16-16c0-8.837 7.163-16 16-16s16 7.163 16 16z"></path>
<path fill="#f8f8f8" style="fill: var(--color2, #f8f8f8)" opacity="0.5" d="M14.982 16.516c-0.068-0.068-0.122-0.148-0.159-0.237s-0.056-0.184-0.056-0.28 0.019-0.191 0.056-0.28c0.037-0.089 0.091-0.169 0.159-0.237l3.338-3.331c0.068-0.068 0.122-0.148 0.159-0.237s0.056-0.184 0.056-0.28-0.019-0.191-0.056-0.28c-0.037-0.089-0.091-0.169-0.159-0.237-0.136-0.135-0.321-0.211-0.513-0.211s-0.377 0.076-0.513 0.211l-3.338 3.338c-0.409 0.409-0.638 0.964-0.638 1.542s0.23 1.133 0.638 1.542l3.338 3.338c0.135 0.134 0.318 0.21 0.509 0.211 0.096 0.001 0.191-0.018 0.279-0.054s0.169-0.090 0.237-0.157c0.068-0.068 0.122-0.148 0.159-0.237s0.056-0.184 0.056-0.28c0-0.096-0.019-0.191-0.056-0.28s-0.091-0.169-0.159-0.237l-3.338-3.331z"></path>
</symbol>

<symbol id="arrow-rigth" viewBox="0 0 32 32">
<path fill="#9bb537" style="fill: var(--color3, #9bb537)" d="M32 16c0 8.837-7.163 16-16 16s-16-7.163-16-16c0-8.837 7.163-16 16-16s16 7.163 16 16z"></path>
<path fill="#050505" style="fill: var(--color1, #050505)" d="M17.018 16.516c0.068-0.068 0.122-0.148 0.159-0.237s0.056-0.184 0.056-0.28-0.019-0.191-0.056-0.28c-0.037-0.089-0.091-0.169-0.159-0.237l-3.338-3.331c-0.068-0.068-0.122-0.148-0.159-0.237s-0.056-0.184-0.056-0.28c0-0.096 0.019-0.191 0.056-0.28s0.091-0.169 0.159-0.237c0.136-0.136 0.321-0.211 0.513-0.211s0.377 0.076 0.513 0.211l3.338 3.338c0.409 0.409 0.638 0.964 0.638 1.542s-0.23 1.133-0.638 1.542l-3.338 3.338c-0.135 0.134-0.318 0.21-0.509 0.211-0.096 0-0.191-0.018-0.279-0.054s-0.169-0.089-0.237-0.157c-0.068-0.068-0.122-0.148-0.159-0.237s-0.056-0.184-0.056-0.28 0.019-0.191 0.056-0.28c0.037-0.089 0.091-0.169 0.159-0.237l3.338-3.331z"></path>
</symbol>

<symbol id="arrow-double-right" viewBox="0 0 32 32">
<path fill="#9bb537" style="fill: var(--color3, #9bb537)" d="M32 16c0 8.837-7.163 16-16 16s-16-7.163-16-16c0-8.837 7.163-16 16-16s16 7.163 16 16z"></path>
<path fill="#050505" style="fill: var(--color1, #050505)" d="M19.927 16.516c0.068-0.068 0.122-0.148 0.159-0.237s0.056-0.184 0.056-0.28-0.019-0.191-0.056-0.28c-0.037-0.089-0.091-0.169-0.159-0.237l-3.338-3.331c-0.068-0.068-0.122-0.148-0.159-0.237s-0.056-0.184-0.056-0.28c0-0.096 0.019-0.191 0.056-0.28s0.091-0.169 0.159-0.237c0.136-0.136 0.321-0.211 0.513-0.211s0.377 0.076 0.513 0.211l3.338 3.338c0.409 0.409 0.638 0.964 0.638 1.542s-0.23 1.133-0.638 1.542l-3.338 3.338c-0.135 0.134-0.318 0.21-0.509 0.211-0.096 0-0.191-0.018-0.279-0.054s-0.169-0.090-0.237-0.157c-0.068-0.068-0.122-0.148-0.159-0.237s-0.056-0.184-0.056-0.28 0.019-0.191 0.056-0.28c0.037-0.089 0.091-0.169 0.159-0.237l3.338-3.331z"></path>
<path fill="#050505" style="fill: var(--color1, #050505)" d="M14.836 16.516c0.068-0.068 0.122-0.148 0.159-0.237s0.056-0.184 0.056-0.28-0.019-0.191-0.056-0.28c-0.037-0.089-0.091-0.169-0.159-0.237l-3.338-3.331c-0.068-0.068-0.122-0.148-0.159-0.237s-0.056-0.184-0.056-0.28c0-0.096 0.019-0.191 0.056-0.28s0.091-0.169 0.159-0.237c0.136-0.136 0.321-0.211 0.513-0.211s0.377 0.076 0.513 0.211l3.338 3.338c0.409 0.409 0.638 0.964 0.638 1.542s-0.23 1.133-0.638 1.542l-3.338 3.338c-0.135 0.134-0.318 0.21-0.509 0.211-0.096 0-0.191-0.018-0.279-0.054s-0.169-0.090-0.237-0.157c-0.068-0.068-0.122-0.148-0.159-0.237s-0.056-0.184-0.056-0.28 0.019-0.191 0.056-0.28c0.037-0.089 0.091-0.169 0.159-0.237l3.338-3.331z"></path>
</symbol>

<symbol id="icon-up" viewBox="0 0 32 32">
<path d="M16 32c-8.8 0-16-7.2-16-16s7.2-16 16-16 16 7.2 16 16-7.2 16-16 16zM16 2.667c-7.333 0-13.333 6-13.333 13.333s6 13.333 13.333 13.333 13.333-6 13.333-13.333-6-13.333-13.333-13.333z"></path>
<path d="M20 18.667c-0.4 0-0.667-0.133-0.933-0.4l-3.067-3.067-3.067 3.067c-0.533 0.533-1.333 0.533-1.867 0s-0.533-1.333 0-1.867l4-4c0.533-0.533 1.333-0.533 1.867 0l4 4c0.533 0.533 0.533 1.333 0 1.867-0.267 0.267-0.533 0.4-0.933 0.4z"></path>
</symbol>
</defs>
</svg>
